<svg width="329" height="223" viewBox="0 0 329 223" fill="none" xmlns="http://www.w3.org/2000/svg">
<path fill-rule="evenodd" clip-rule="evenodd" d="M47.6952 198.723C48.1347 198.503 48.5928 198.252 49.0948 198.234C49.9567 198.204 49.9578 196.863 49.0948 196.893C48.3419 196.92 47.6807 197.234 47.0184 197.565C46.2454 197.95 46.9254 199.106 47.6952 198.723ZM49.0948 160.964C48.5066 160.965 47.9137 161.039 47.4619 161.451C47.1934 161.696 47.2147 162.152 47.4619 162.399C47.7266 162.664 48.1427 162.643 48.4104 162.399C48.323 162.479 48.4095 162.4 48.4411 162.382C48.4487 162.378 48.4529 162.375 48.4549 162.374C48.4615 162.372 48.4683 162.371 48.4791 162.368C48.5493 162.35 48.6186 162.333 48.6893 162.32C48.6905 162.323 48.8391 162.31 48.8739 162.309C48.9477 162.306 49.0212 162.306 49.0948 162.306C49.4585 162.306 49.7652 161.999 49.7652 161.635C49.7652 161.273 49.4572 160.964 49.0948 160.964ZM55.3999 176.012C55.592 176.854 56.8846 176.495 56.693 175.654C56.4144 174.433 56.4652 173.18 56.693 171.954C56.8499 171.11 55.5573 170.751 55.3999 171.598C55.1266 173.069 55.0655 174.544 55.3999 176.012ZM57.0936 127.802C58.0923 127.565 59.0801 127.536 60.1016 127.536C60.9659 127.536 60.9645 126.194 60.1016 126.195C58.9623 126.195 57.85 126.244 56.737 126.508C55.8966 126.708 56.2547 128.001 57.0936 127.802ZM60.44 160.476C61.0192 160.186 61.5986 159.896 62.1778 159.607C62.9508 159.22 62.2709 158.063 61.5011 158.448L59.7632 159.318C58.9904 159.704 59.6703 160.861 60.44 160.476ZM60.6812 186.892C61.416 187.952 62.449 188.61 63.6887 188.939C64.5252 189.16 64.8788 187.866 64.0453 187.645C63.1587 187.41 62.3711 186.982 61.8392 186.216C61.3502 185.509 60.1882 186.181 60.6812 186.892ZM65.3148 139.663C65.5137 139.291 65.813 139.134 66.1843 139.126C67.0472 139.106 67.0474 137.765 66.1843 137.785C65.3379 137.804 64.5616 138.229 64.1572 138.986C63.7499 139.748 64.908 140.425 65.3148 139.663ZM73.8205 148.781C74.0609 149.043 74.527 149.036 74.7687 148.781C74.9168 148.625 75.0411 148.45 75.1389 148.259C75.1762 148.186 75.2112 148.112 75.2521 148.042C75.2704 148.01 75.2906 147.979 75.3114 147.949C75.3186 147.943 75.333 147.928 75.3481 147.912C75.6059 147.639 75.5992 147.237 75.3481 146.963C75.1077 146.701 74.6415 146.708 74.3997 146.963C74.252 147.119 74.1274 147.294 74.0297 147.485C73.9924 147.558 73.9574 147.632 73.9163 147.703C73.898 147.734 73.8778 147.765 73.857 147.795C73.85 147.801 73.8356 147.817 73.8205 147.832C73.5627 148.105 73.5692 148.507 73.8205 148.781ZM74.5356 168.589C75.4088 168.988 76.3667 168.988 77.2401 168.589C77.5707 168.438 77.6491 167.959 77.4803 167.67C77.2849 167.336 76.8921 167.28 76.5631 167.431C76.167 167.612 75.6078 167.612 75.2122 167.431C74.8817 167.28 74.4927 167.333 74.295 167.67C74.1252 167.961 74.2061 168.438 74.5356 168.589ZM76.9177 182.61C77.0677 182.964 77.3918 183.153 77.7706 183.168C78.1458 183.182 78.4253 182.849 78.4411 182.497C78.451 182.269 78.3282 182.075 78.1518 181.955C78.1515 181.942 78.1511 181.93 78.1511 181.917C78.151 181.542 77.8441 181.262 77.4807 181.247C77.1188 181.231 76.81 181.566 76.8102 181.917C76.8104 182.155 76.825 182.389 76.9177 182.61ZM80.3774 204.899C81.4476 204.915 82.4933 205.171 83.5635 205.188C84.4282 205.203 84.4255 203.862 83.5635 203.847C82.4934 203.83 81.4478 203.575 80.3774 203.558C79.5126 203.543 79.5153 204.886 80.3774 204.899ZM84.8275 118.937C85.4539 119.534 86.2277 119.828 86.9907 120.201C87.7637 120.579 88.4428 119.421 87.6675 119.043C87.0212 118.727 86.3057 118.493 85.7756 117.988C85.1503 117.393 84.2011 118.34 84.8275 118.937ZM86.5089 134.398C86.9485 134.179 87.4066 133.928 87.9083 133.911C88.7703 133.88 88.7715 132.539 87.9083 132.569C87.1556 132.595 86.4946 132.909 85.8321 133.24C85.0588 133.626 85.7389 134.783 86.5089 134.398ZM94.5702 196.455C94.7686 196.082 95.0679 195.924 95.4392 195.916C96.3024 195.898 96.3028 194.555 95.4392 194.575C94.5928 194.595 93.8165 195.021 93.4121 195.777C93.0051 196.539 94.1629 197.216 94.5702 196.455ZM97.3617 167.325C97.6286 167.08 97.61 166.625 97.3617 166.376C97.0721 166.087 96.7825 165.797 96.4927 165.507C96.2278 165.242 95.8123 165.261 95.5446 165.507C95.2777 165.752 95.2963 166.206 95.5446 166.456C95.8344 166.745 96.1238 167.036 96.4136 167.325C96.6786 167.591 97.094 167.571 97.3617 167.325ZM100.653 212.722C101.621 212.7 102.528 212.423 103.438 212.119C104.254 211.848 103.903 210.552 103.082 210.826C102.29 211.088 101.495 211.361 100.653 211.381C99.7902 211.401 99.7898 212.742 100.653 212.722ZM104.998 184.037C105.872 184.012 106.597 183.567 107.21 182.971C107.83 182.369 106.881 181.42 106.262 182.023C105.911 182.364 105.506 182.681 104.998 182.696C104.135 182.72 104.135 184.061 104.998 184.037ZM102.3 147.148C102.289 147.505 102.139 147.887 101.917 148.122C101.324 148.75 102.271 149.7 102.865 149.071C103.355 148.552 103.62 147.858 103.641 147.148C103.666 146.283 102.325 146.287 102.3 147.148ZM112.529 117.932C112.809 117.382 113.177 116.738 113.736 116.434C114.496 116.022 113.818 114.864 113.06 115.276C112.299 115.689 111.755 116.502 111.371 117.255C110.978 118.023 112.136 118.701 112.529 117.932ZM114.267 131.882C114.578 131.874 114.887 131.82 115.187 131.739C115.315 131.704 115.442 131.664 115.57 131.629C115.625 131.614 115.859 131.585 115.715 131.593C116.078 131.573 116.386 131.301 116.386 130.922C116.386 130.573 116.077 130.232 115.715 130.251C115.217 130.278 114.765 130.527 114.267 130.541C113.404 130.565 113.404 131.907 114.267 131.882ZM118.612 153.324H120.06C120.924 153.324 120.923 151.982 120.06 151.982H118.612C117.747 151.982 117.749 153.324 118.612 153.324ZM120.301 212.63C120.74 212.85 121.258 213.059 121.614 213.395C122.241 213.988 123.19 213.041 122.562 212.446C122.109 212.017 121.529 211.748 120.978 211.472C120.653 211.309 120.253 211.383 120.06 211.713C119.886 212.011 119.977 212.469 120.301 212.63ZM123.537 195.682C123.593 195.665 123.652 195.655 123.709 195.647C123.937 195.617 124.176 195.627 124.405 195.627C125.269 195.627 125.268 194.284 124.405 194.286C123.725 194.286 123.017 194.296 122.482 194.771C122.211 195.014 122.237 195.476 122.482 195.72C122.749 195.988 123.16 195.961 123.43 195.72C123.402 195.747 123.5 195.692 123.537 195.682ZM124.405 172.886C124.21 172.484 124.207 172.223 124.206 171.776C124.206 170.912 122.865 170.914 122.865 171.776C122.866 172.424 122.962 172.976 123.247 173.564C123.405 173.891 123.87 173.976 124.164 173.805C124.493 173.612 124.562 173.212 124.405 172.886ZM128.282 141.42C129.06 141.685 129.754 142.059 130.439 142.512C131.162 142.989 131.833 141.827 131.116 141.353C130.334 140.837 129.525 140.429 128.638 140.126C127.818 139.847 127.469 141.144 128.282 141.42ZM132.805 118.844C133.383 118.86 133.979 119.081 134.494 119.332C135.268 119.707 135.947 118.55 135.171 118.173C134.435 117.816 133.63 117.525 132.805 117.502C131.94 117.478 131.944 118.82 132.805 118.844ZM134.832 179.111C135.06 179.122 135.254 178.999 135.374 178.821C135.387 178.821 135.399 178.821 135.412 178.821C135.787 178.821 136.066 178.514 136.082 178.15C136.098 177.79 135.762 177.481 135.412 177.481C135.175 177.481 134.94 177.496 134.72 177.587C134.365 177.738 134.176 178.062 134.162 178.441C134.148 178.816 134.481 179.096 134.832 179.111ZM138.13 132.728C138.954 132.997 139.303 131.701 138.487 131.434C137.528 131.121 136.548 130.878 135.59 130.565C134.766 130.296 134.417 131.591 135.233 131.858C136.192 132.172 137.172 132.414 138.13 132.728ZM141.137 158.047C141.393 158.87 142.687 158.517 142.431 157.69C142.183 156.892 142.165 156.09 142.165 155.261C142.164 154.396 140.823 154.398 140.824 155.261C140.824 156.204 140.856 157.139 141.137 158.047ZM150.103 188.372C150.152 188.706 150.417 188.947 150.763 188.962C151.116 188.979 151.447 188.643 151.434 188.293C151.409 187.616 150.859 187.066 150.184 187.041C149.809 187.028 149.529 187.361 149.514 187.713C149.498 188.055 149.784 188.323 150.103 188.372ZM154.64 149.823C155.349 150.059 156.106 150.285 156.661 150.809C157.289 151.402 158.239 150.455 157.61 149.861C156.877 149.169 155.935 148.843 154.997 148.529C154.175 148.255 153.826 149.551 154.64 149.823ZM157.715 175.882C157.91 176.214 158.305 176.274 158.633 176.123C159.072 175.917 159.558 175.925 160.032 175.924C160.896 175.924 160.895 174.583 160.032 174.583C159.301 174.583 158.626 174.652 157.956 174.963C157.626 175.118 157.546 175.591 157.715 175.882ZM159.453 207.506C159.829 207.521 160.108 207.189 160.123 206.836C160.139 206.494 159.853 206.226 159.534 206.177C159.485 205.843 159.22 205.602 158.874 205.585C158.521 205.57 158.19 205.906 158.203 206.256C158.228 206.931 158.778 207.483 159.453 207.506ZM37.284 212.579C37.5118 211.758 38.0332 211.097 38.427 210.359C38.5591 210.11 38.6052 209.955 38.6768 209.774C38.774 209.968 38.9627 210.115 39.2464 210.115C39.7909 210.115 40.4276 210.08 40.9357 210.312C41.2661 210.464 41.6554 210.41 41.853 210.071C42.0228 209.781 41.9417 209.305 41.6125 209.154C40.8636 208.812 40.0587 208.774 39.2464 208.772C39.0458 208.772 38.8939 208.847 38.7866 208.958C38.4762 204.706 38.4839 200.451 38.7776 196.195C39.0908 191.647 39.8118 187.191 40.5662 182.701C40.9314 180.525 41.4058 178.326 41.3136 176.11C41.2214 173.908 40.2777 171.856 40.9465 169.648C41.2147 168.762 41.674 167.951 41.9724 167.076C42.2925 166.133 42.264 165.203 42.1181 164.227C41.8182 162.24 41.3204 160.276 42.1167 158.336C42.4686 157.476 43.0387 156.708 43.3133 155.819C43.6553 154.714 43.6083 153.492 43.6654 152.347C43.7811 150.036 43.8112 147.71 44.0024 145.405C44.0878 144.372 44.2738 143.393 44.698 142.445C45.1054 141.533 45.7104 140.703 45.9802 139.736C46.2484 138.783 46.2719 137.779 46.4161 136.805C46.567 135.775 46.8032 134.761 47.1218 133.771C48.3522 129.941 50.6067 126.501 53.2702 123.518C56.1015 120.347 59.4857 117.959 63.0779 115.734C64.9669 114.564 66.8556 113.394 68.7432 112.224C68.7836 112.443 68.9235 112.645 69.1922 112.735C69.901 112.972 70.6579 113.197 71.2135 113.721C71.8411 114.314 72.7907 113.367 72.1618 112.773C71.5058 112.153 70.6812 111.827 69.842 111.54C70.7021 110.998 71.5715 110.437 72.542 110.123C73.3921 109.848 74.6456 110.088 75.3348 109.464C75.876 108.973 76.0472 108.063 76.2549 107.395C76.5148 106.567 76.7392 105.693 77.0696 104.889C77.2942 104.339 77.6211 103.81 78.0333 103.384C78.2144 102.687 78.5464 102.05 79.1331 101.662C80.6685 100.646 82.5542 101.656 83.2297 103.104C83.788 103.103 84.3762 103.225 84.9194 103.259C86.0358 103.329 87.1538 103.361 88.2719 103.358C90.4594 103.351 92.6486 103.208 94.8176 102.918C98.6963 102.398 102.46 101.35 106.273 100.534C106.295 100.484 106.32 100.433 106.35 100.383C107.172 99.0047 109.218 99.2377 110.507 99.7593C111.06 99.9823 111.624 100.264 111.94 100.787C112.276 101.013 112.566 101.288 112.758 101.579C113.157 102.177 113.466 103.384 114.275 103.485C114.809 103.55 115.35 103.448 115.891 103.525C116.569 103.619 117.175 103.857 117.801 104.129C122.561 106.196 127.483 108.495 132.649 109.297C133.861 109.485 135.094 109.679 136.147 110.358C137.002 110.91 137.663 111.668 138.368 112.387C139.055 113.088 139.622 113.398 140.602 113.524C141.793 113.677 142.824 114.005 143.693 114.871C144.416 115.59 144.887 116.509 145.454 117.344C146.03 118.196 146.877 118.675 147.755 119.17C149.832 120.34 151.766 121.754 153.451 123.449C156.999 127.024 159.148 131.618 161.314 136.095C163.656 140.938 165.845 145.839 167.363 151.01C168.852 156.088 169.737 161.311 170.146 166.582C170.577 172.115 170.638 177.668 170.997 183.203C171.175 185.968 171.311 188.736 171.449 191.503C171.583 194.236 171.78 196.975 171.748 199.711C171.686 205.002 170.63 210.309 168.78 215.262C168.318 216.494 167.808 217.71 167.263 218.906C166.785 219.958 165.151 219.84 164.638 218.906C164.521 218.692 164.429 218.471 164.351 218.247C163.011 218.258 161.656 218.154 160.324 218.278C157.97 218.498 155.612 218.62 153.252 218.767C148.581 219.056 143.903 219.249 139.231 219.516C138.778 219.541 138.325 219.568 137.872 219.594C141.201 209.287 140.769 198.143 141.296 187.424C141.338 186.558 139.997 186.563 139.955 187.424C139.426 198.189 139.876 209.362 136.429 219.686C135.092 219.777 133.757 219.887 132.426 220.05C131.35 220.177 130.268 220.33 129.182 220.277C127.95 220.219 126.747 219.937 125.545 219.692C123.361 219.247 121.257 219.448 119.064 219.722C116.719 220.015 114.366 220.177 112.006 220.28C102.555 220.694 93.0407 221.071 83.5934 220.44C81.307 220.287 79.0256 220.073 76.7544 219.78C74.4143 219.481 72.0995 218.976 69.7613 218.689C67.4565 218.408 65.3376 219.18 63.0595 219.323C60.7364 219.468 58.351 218.984 56.0495 218.705C55.2986 218.614 54.547 218.526 53.7953 218.438C54.763 211.803 55.3134 205.117 55.8479 198.434C55.9169 197.571 54.5753 197.579 54.507 198.434C53.9768 205.065 53.4387 211.7 52.4723 218.283C48.4871 217.82 44.4979 217.351 40.5542 216.628C39.4311 216.424 38.3149 216.09 37.6426 215.088C37.1449 214.345 37.0442 213.435 37.284 212.579Z" fill="black"/>
<path fill-rule="evenodd" clip-rule="evenodd" d="M97.1109 32.5519C94.4942 32.0237 91.8073 31.695 89.1353 31.7939L88.9293 31.802C86.9187 31.8823 84.3726 32.0601 82.6188 33.2297C82.5177 33.1283 82.3556 33.0763 82.2084 33.1466C80.1242 34.1417 77.8317 34.8614 75.6372 35.5762C73.4526 36.2877 71.1864 36.7575 68.8968 36.9467C68.0354 37.018 67.2982 37.9485 67.8437 38.783C67.9735 38.9819 68.0997 39.1828 68.2257 39.3841C68.0152 39.3622 67.8046 39.3394 67.5941 39.3182C66.9012 39.2484 66.2092 39.9881 66.2502 40.6629C66.2759 41.0873 66.3216 41.5065 66.3894 41.9209C66.1256 41.9155 65.8632 41.955 65.6098 42.0622C64.3264 42.6042 64.4158 44.1334 64.5118 45.2967C64.6449 46.9111 65.2486 48.6211 66.3692 49.8294C65.5324 50.6988 64.94 51.7371 64.5867 52.9702C64.3304 53.8706 64.1878 54.8297 64.2582 55.767L64.2807 56.0477C64.3677 57.0649 64.5407 58.191 65.2723 58.9228C65.6479 59.3001 66.1105 59.4375 66.5514 59.394C66.2848 61.738 66.1138 64.0957 65.9529 66.4449L65.8773 67.5676C65.5184 72.9971 65.2487 78.4619 65.3192 83.9002C65.3848 88.9826 66.3886 93.9157 69.5048 98.0424C72.3428 101.8 76.4176 104.57 81.0273 105.623C83.5116 106.192 86.0477 106.232 88.562 105.87C89.7808 105.693 91.0076 105.424 92.1644 104.998C93.4449 104.525 94.3652 103.829 95.2268 102.786C95.6342 102.291 95.4381 101.238 94.6266 101.337C93.3995 101.486 92.2791 101.666 91.1025 102.029L90.934 102.082C89.7622 102.457 88.5486 102.737 87.3235 102.856C84.8139 103.099 82.2662 102.855 79.8623 102.093C75.9482 100.853 72.5773 98.0876 70.4167 94.6133C67.852 90.4951 67.562 85.8202 67.5991 81.0849C67.6388 75.8889 67.8078 70.6897 68.0835 65.4989L68.1305 64.6339C68.2764 61.9628 68.4171 59.29 68.5409 56.6171C68.5796 55.7788 68.6383 54.9337 68.7439 54.0969C69.711 53.5301 70.5775 52.7489 71.1425 51.7846C72.2774 52.2542 73.4707 52.5928 74.5689 52.8628C77.1125 53.4886 79.7531 53.6405 82.3421 53.2487C83.0405 53.5373 83.7527 53.791 84.4758 54.0092C84.6714 54.0959 84.8668 54.1812 85.062 54.2646C86.8055 55.0108 88.574 55.6429 90.4142 56.1058L90.8664 56.2185C91.8349 56.4574 92.8869 56.6925 93.9176 56.7665C94.0869 56.8318 94.2697 56.8871 94.4693 56.9358C95.4077 57.1638 96.3819 57.2359 97.3439 57.1555C98.281 57.0767 98.9583 56.1292 98.442 55.2423C98.0648 54.5949 97.6841 53.9494 97.3003 53.3055C98.6363 53.8621 100.016 54.3251 101.407 54.7174C102.812 55.1132 104.237 55.4468 105.663 55.7536C106.426 55.9162 107.192 56.0605 107.953 56.2231C108.498 56.3388 109.334 56.3993 109.778 56.758C110.269 57.1521 110.408 58.071 110.595 58.6378C110.839 59.3739 111.069 60.1133 111.279 60.8612C111.696 62.3535 112.038 63.8676 112.303 65.3969C112.568 66.9278 112.745 68.4737 112.844 70.0248C112.943 71.5741 112.9 73.1336 113.059 74.6762C113.144 75.4946 114.022 75.9154 114.671 75.3435C114.747 75.2765 114.824 75.2088 114.9 75.1401L115.013 75.0368C115.568 74.5336 116.106 74.0004 116.55 73.4003C116.631 73.2896 116.708 73.1738 116.78 73.0565C116.792 73.0565 116.802 73.0531 116.813 73.0447L116.936 72.9519C118.292 71.9427 120.557 70.6267 121.879 72.3036C122.3 72.8378 122.516 73.5181 122.695 74.1742L123.009 75.3487C123.212 76.1155 123.403 76.8865 123.515 77.6709C123.768 79.4283 123.641 81.4538 122.432 82.8623C121.949 83.4258 121.284 83.8281 120.542 83.9337C120.127 83.9907 119.718 83.9203 119.308 83.8684C118.89 83.8164 118.488 83.9002 118.071 83.86C117.407 83.7947 117.117 84.5894 117.365 85.0891C117.499 85.3574 117.657 85.5887 117.836 85.7849C117.692 85.9091 117.554 86.0432 117.422 86.1841C117.03 86.3099 116.678 86.5797 116.415 86.9369C116.202 87.2254 116.091 87.5389 116.073 87.8693C116.049 87.9514 116.029 88.0353 116.01 88.1207L115.651 88.7046C115.572 88.8327 115.493 88.9591 115.414 89.0833C114.499 90.5252 113.483 91.746 112.22 92.8962C111.005 94.003 109.686 94.994 108.544 96.181L108.41 96.3221C107.346 97.444 106.224 98.802 106.64 100.433C106.748 100.853 107.333 101.154 107.715 100.871C108.943 99.9589 109.562 98.5134 110.605 97.4068C111.678 96.2666 112.866 95.242 113.942 94.1052C114.96 93.0321 115.763 91.8164 116.368 90.4783C116.609 90.7449 116.961 90.9345 117.449 91.0082C118.287 91.1338 119.068 90.6427 119.433 89.9165C119.668 90.0206 119.908 90.1144 120.149 90.1882C121.42 90.5772 122.219 89.1637 121.74 88.119C121.484 87.559 121.163 87.0727 120.766 86.6636C122.008 86.4926 123.272 85.8504 124.089 85.0488C126.137 83.035 126.418 80.0083 125.957 77.3172C125.713 75.8902 125.29 74.4466 124.742 73.1068C124.647 72.8737 124.544 72.6389 124.432 72.4074C124.494 72.4058 124.558 72.379 124.598 72.327C124.969 71.8207 125.419 71.4065 125.694 70.8397C125.947 70.3199 126.229 69.7934 126.428 69.2519C126.839 68.1434 127.04 66.8925 127.174 65.7204C127.451 63.3211 127.344 60.9366 126.976 58.5522C126.351 54.4911 124.841 50.6045 122.617 47.1942C122.738 47.1306 122.854 47.0538 122.962 46.9629L123.016 46.9163L123.103 46.8378C123.737 46.2632 123.682 45.1862 123.103 44.6041L122.919 44.4205C122.687 44.19 122.487 44.0073 122.113 43.7564C122.057 43.7193 122.001 43.6844 121.944 43.6518C122.14 43.2894 122.208 42.8654 122.071 42.3978C121.595 40.7686 119.252 40.8263 117.767 41.5368C116.123 40.0697 114.301 38.7963 112.326 37.7651C107.623 35.3102 102.304 33.5982 97.1109 32.5519ZM121.425 75.461C120.546 75.1742 119.38 75.7762 118.59 76.1384C117.589 76.5979 116.738 77.277 115.913 77.9946C115.502 78.3534 115.429 78.9402 115.531 79.4417C115.541 79.4919 115.551 79.5439 115.563 79.5959C115.672 80.1308 116.269 80.5517 116.797 80.5366C117.901 80.5065 118.428 79.5524 119.053 78.7442C119.127 78.8749 119.219 78.9956 119.333 79.0861L119.41 79.1465C119.669 79.3442 119.956 79.5022 120.298 79.4869C120.542 79.4751 120.774 79.4131 120.989 79.3008C121.526 79.0173 121.762 78.3233 121.616 77.7582C121.526 77.4028 121.318 77.1243 121.046 76.9315L121.147 76.8622C121.364 76.7115 121.561 76.5525 121.715 76.3179L121.75 76.2624H121.737C121.904 75.9741 121.795 75.5816 121.425 75.461Z" fill="black"/>
<path fill-rule="evenodd" clip-rule="evenodd" d="M80.053 92.3352C81.288 92.6929 82.6134 92.7248 83.8721 92.3555C85.0136 92.0203 86.1859 91.2827 87.0262 90.3067C87.7726 89.4397 88.2559 88.3862 88.237 87.2614C88.2348 87.133 88.189 87.0258 88.1184 86.9426C88.0423 86.853 87.9361 86.7915 87.8223 86.7648C87.7053 86.7374 87.5817 86.747 87.4763 86.7949C87.3809 86.8382 87.2993 86.9118 87.2482 87.0193C87.1191 87.189 86.9905 87.3563 86.8613 87.5188C85.823 88.8013 84.8176 89.7597 83.2563 90.1035C82.4092 90.2899 81.5633 90.2072 80.787 89.9227C79.9562 89.618 79.2049 89.0822 78.6164 88.3968C78.3504 88.0869 78.0363 87.9605 77.7293 87.9583C77.3812 87.956 77.0372 88.1177 76.7782 88.3762C76.5234 88.6305 76.3528 88.9757 76.3373 89.337C76.3239 89.654 76.4272 89.9852 76.7022 90.2808C77.6083 91.254 78.7826 91.967 80.053 92.3352ZM80.0913 76.2728C78.8254 77.0425 76.8968 78.8372 78.2585 80.7452C79.8613 82.4276 82.1691 80.4987 83.3063 79.6263C84.3608 78.9502 85.5455 80.6891 84.5672 81.4785C76.3496 87.5645 73.0148 76.4741 79.451 75.3679C80.1597 75.246 80.4229 76.0347 80.0913 76.2728ZM91.9321 72.8863C92.3389 72.6259 92.8176 72.5367 93.348 72.778C93.7624 72.9666 94.4893 73.5951 94.9953 74.4213C95.3414 74.9866 95.5868 75.6497 95.5356 76.3406C95.5238 76.501 95.583 76.6193 95.6766 76.7067C95.7503 76.7758 95.857 76.8265 95.9823 76.8424C96.0886 76.8559 96.2076 76.8438 96.3043 76.8135C96.4884 76.756 96.5858 76.6366 96.6225 76.539C96.9768 75.5981 96.8242 74.5479 96.4271 73.6005C95.8914 72.3219 94.9184 71.2509 94.281 70.9057C93.1901 70.3146 91.9032 70.2874 90.8108 70.8895C89.881 71.402 89.2994 72.2295 88.7212 73.0729C88.5982 73.2522 88.4763 73.4301 88.3501 73.6049C88.0974 73.9554 88.0723 74.3028 88.1702 74.6008C88.2785 74.9309 88.555 75.2094 88.9008 75.3553C89.2202 75.4901 89.5911 75.509 89.9192 75.3706C90.1964 75.2536 90.4508 75.0256 90.6118 74.6388C90.883 73.9873 91.3346 73.2685 91.9321 72.8863ZM71.2697 74.3357C71.5484 74.481 71.7664 74.5247 72.0755 74.4321C72.2464 74.3808 72.4153 74.2822 72.5475 74.15C72.6786 74.0189 72.7732 73.8559 72.8099 73.6749C72.9003 73.2286 73.1445 72.8107 73.4925 72.5382C73.7899 72.3054 74.1653 72.1819 74.5817 72.2516C75.031 72.3267 75.459 72.615 75.7538 72.9548C75.8525 73.0684 75.9296 73.1975 76.0073 73.326C76.1526 73.5657 76.2938 73.7887 76.494 73.965C76.57 74.032 76.6844 74.0783 76.7953 74.0783C76.8403 74.0783 76.886 74.071 76.9297 74.0574C77.3768 73.6084 77.4627 73.2678 77.4485 72.93C77.4333 72.5757 77.2936 72.217 77.0679 71.8824C76.5387 71.0974 75.5338 70.4537 74.8557 70.3078C73.927 70.1082 73.0046 70.3479 72.265 70.8668C71.5042 71.4007 70.9404 72.2296 70.7646 73.1638C70.7224 73.3888 70.7403 73.6315 70.8259 73.8421C70.9097 74.0479 71.0556 74.2241 71.2697 74.3357ZM89.8838 64.5161C90.4411 65.0593 91.1008 65.1435 91.7683 65.2183C92.139 65.2603 92.4351 65.294 92.7264 65.3598C93.5269 65.5406 94.3183 65.813 95.0403 66.2051C95.7952 66.615 96.6177 67.1094 97.2094 67.7428C97.3501 67.8935 97.4827 68.0515 97.6155 68.21C97.7366 68.3546 97.8533 68.4937 97.9762 68.6279C98.1175 68.7819 98.2516 68.9435 98.385 69.1045C98.4674 69.2404 98.4837 69.2738 98.5003 69.3087C98.5254 69.361 98.5545 69.4195 98.5877 69.4823C98.6331 69.5682 98.6864 69.6623 98.7422 69.7477C98.835 69.9037 98.8848 69.9466 98.9278 69.9658C98.9993 69.9976 99.0669 70.0134 99.1327 70.0047C99.1944 69.9969 99.2524 69.9672 99.3097 69.9188C99.5958 69.6769 99.6802 69.2801 99.6716 68.8587C99.6584 68.2195 99.4227 67.5116 99.2053 67.0765C98.7 66.0654 97.9993 65.0144 97.1567 64.2597C96.1953 63.3985 95.1433 62.7463 93.935 62.297C93.1843 62.0177 92.3149 61.7613 91.4969 61.7937C90.908 61.8169 90.3459 61.9921 89.8818 62.4293C89.5967 62.6976 89.4599 63.0794 89.4599 63.461C89.4599 63.8501 89.602 64.2414 89.8838 64.5161ZM70.1362 69.4903C70.1717 69.5484 70.2208 69.5885 70.2753 69.6126C70.3326 69.6377 70.3964 69.645 70.4577 69.6347C70.5189 69.6244 70.5768 69.5966 70.6229 69.5544C70.6669 69.5139 70.7005 69.4601 70.7156 69.3943C71.0856 67.7685 71.8041 66.5589 73.3376 65.7789C74.092 65.3952 74.9595 65.1515 75.7807 64.9571C76.0193 64.9006 76.2715 64.8639 76.5254 64.8268C77.3213 64.7107 78.1229 64.5774 78.6417 63.934C78.9544 63.5464 79.0855 63.0505 79.0114 62.5972C78.9416 62.1704 78.6922 61.7789 78.2389 61.5444C77.1103 60.9607 75.7079 61.5335 74.5682 62.0213C74.4838 62.0575 74.4007 62.0931 74.3196 62.1273C73.205 62.5979 72.1886 63.219 71.3532 64.1073C70.6902 64.8122 70.0759 65.854 69.8284 66.9258C69.6227 67.8174 69.6711 68.7276 70.1362 69.4903Z" fill="black"/>
<path fill-rule="evenodd" clip-rule="evenodd" d="M76.5408 95.0435C78.1019 93.6522 79.8518 90.8552 82.0944 93.0683C82.6491 93.6936 82.8737 95.0953 83.7218 95.3703C84.8482 95.7359 85.9647 94.5437 86.3485 93.6281C87.9192 88.5412 81.4265 87.146 77.7277 87.9678C75.9207 88.7102 74.5898 91.6981 74.5093 93.2576C74.4573 94.3055 75.344 95.8465 76.5408 95.0435ZM64.7636 87.2028C64.7789 87.1352 64.8002 87.0742 64.8258 87.0185C65.5162 86.7575 66.0625 87.0239 66.4001 87.5212C66.389 87.6448 66.3521 87.7699 66.3289 87.8925C66.5894 88.4415 66.8244 89.1208 67.1775 89.5952C67.2471 89.6005 67.3194 89.5932 67.3888 89.5731C73.241 90.1844 70.3839 84.0592 76.3197 82.5378C80.9081 81.7806 89.201 82.648 91.3656 87.4255C93.0726 95.0561 101.753 89.7391 104.603 85.7707C107.644 82.159 109.61 77.7456 111.506 73.4631C111.906 72.5568 113.157 73.2049 113.021 74.0744C114.773 77.5909 114.715 81.8147 115.149 85.667C115.887 93.3525 116.606 104.131 109.467 108.823C100.167 119.34 76.9408 123.051 66.2132 113.388C62.4997 105.402 62.9574 95.6583 64.7636 87.2028Z" fill="black"/>
<path fill-rule="evenodd" clip-rule="evenodd" d="M70.8727 63.8031C66.9382 63.8031 64.693 64.6493 63.8701 64.7153L63.8454 64.7171C63.5033 64.7391 63.1962 64.7676 62.8742 64.8923C61.6898 65.3485 61.4969 66.5911 62.1879 67.3742C62.2364 68.9946 62.0234 70.8879 62.389 72.5136C62.8399 79.3668 66.0618 80.5233 67.8933 80.9453C68.8126 81.1573 69.9025 81.2417 70.879 81.0179C72.5453 80.9558 74.1924 80.434 75.6018 79.5254C77.5645 78.2591 79.0223 76.3129 79.4953 74.0029C79.7196 72.9019 79.8243 71.7559 79.7024 70.6366L79.6842 70.4824C80.3223 70.1772 81.0616 70.1195 81.8236 70.0925C82.1876 70.0795 82.5465 70.0679 82.8952 70.0835C83.2358 70.1215 83.5724 70.1722 83.9102 70.2412C84.2789 70.3525 84.6272 70.5361 84.9487 70.8271L84.9708 71.2518C85.0313 72.3125 85.1706 73.3765 85.3853 74.4171C85.7023 75.9526 86.2122 77.4192 87.2976 78.5084C87.665 79.0572 88.1196 79.5472 88.6716 79.9716C90.6765 81.5156 93.4002 82.0825 95.9001 81.869C100.975 81.4358 103.909 77.4057 104.585 75.6831L104.625 75.5788C105.114 74.2982 105.503 72.6366 107.046 72.3614L107.374 72.3024C108.078 72.1701 108.728 71.986 109.141 71.2988C109.322 70.9987 109.415 70.6631 109.438 70.3209C109.679 70.3395 109.92 70.3571 110.159 70.3744C112.072 70.7789 123.542 71.122 124.457 71.122C124.457 71.122 126.217 71.8629 126.96 71.2888C127.475 70.8895 127.645 70.3575 127.361 69.7548C126.933 68.8479 124.96 68.3024 124.083 68.1296C124.083 68.1296 109.942 68.2471 108.924 68.054C108.294 67.4045 107.168 67.4934 106.227 67.3907C105.447 66.8349 104.357 66.4627 103.496 66.2134C103.321 66.1469 103.147 66.0826 102.978 66.022C101.399 65.4597 99.7586 65.1618 98.0928 65.0018C96.375 64.8386 94.6521 64.9124 92.9443 65.1465C92.2246 65.2442 91.5116 65.3705 90.8038 65.5356C89.5361 65.7028 88.276 65.9781 87.0078 66.3046L86.7541 66.3708C85.4188 66.7209 84.0465 67.0238 82.6642 66.7863C81.5389 66.5944 80.4567 66.1611 79.4191 65.6927L79.284 65.6313C77.0026 64.5893 73.4396 63.8031 70.8727 63.8031ZM90.941 67.6132C91.7828 67.4279 92.1422 68.7263 91.2978 68.9119C90.6998 69.0435 90.193 69.3451 89.8505 69.8562L89.8145 69.9117C89.355 70.6431 88.1932 69.968 88.6558 69.2317C89.1764 68.4034 89.9853 67.8232 90.941 67.6132ZM66.2858 66.8081C66.5826 66.5991 67.0315 66.7543 67.2039 67.0497C67.3934 67.375 67.2693 67.7374 66.9913 67.9503L66.9631 67.9711C66.708 68.1509 66.4598 68.473 66.4285 68.803L66.4259 68.8444C66.3925 69.7083 65.0502 69.7126 65.0838 68.8444C65.1165 67.995 65.6082 67.2853 66.2858 66.8081Z" fill="black"/>
<path fill-rule="evenodd" clip-rule="evenodd" d="M261.399 163.427C259.544 162.699 257.546 162.297 255.538 162.141C256.618 161.952 257.703 161.769 258.797 161.675C259.559 161.61 260.266 161.616 260.839 162.195C261.221 162.581 261.4 163.077 261.653 163.533C261.57 163.496 261.485 163.461 261.399 163.427ZM281.317 156.623C278.278 156.777 275.235 157.5 272.487 158.809C271.362 159.346 270.342 160.121 270.044 161.395C269.893 162.046 269.93 162.718 270.009 163.375C270.071 163.873 270.086 164.509 270.518 164.846C270.593 164.903 270.671 164.946 270.752 164.978C269.738 165.436 268.773 165.986 267.914 166.552C267.13 167.071 266.324 167.87 265.962 168.769C265.932 168.667 265.902 168.571 265.872 168.481C265.255 166.657 264.305 165.163 262.808 164.158C263.072 164.039 263.255 163.758 263.17 163.369C262.815 161.744 261.314 160.332 259.619 160.433C257.763 160.542 255.771 161.217 254.093 162.071C253.481 162.057 252.87 162.066 252.267 162.092C252.164 162.096 252.169 162.237 252.267 162.249C252.757 162.311 253.247 162.379 253.735 162.46C254.899 162.646 256.058 162.882 257.193 163.176C258.554 163.528 259.963 163.882 261.234 164.497C263.702 165.693 265.229 168.819 264.916 171.539C264.865 171.984 264.692 173.331 264.072 173.194C263.551 173.076 263.343 171.984 263.16 171.58C262.67 170.507 261.788 169.806 260.731 169.332C259.488 168.772 258.159 168.395 256.871 167.956C256.143 167.707 255.414 167.456 254.683 167.208C253.935 166.953 253.224 166.599 252.428 166.778C251.948 166.886 251.891 167.459 252.162 167.788C252.572 168.29 253.182 168.438 253.774 168.644C254.555 168.915 255.334 169.187 256.115 169.458C257.32 169.879 258.582 170.231 259.757 170.744L259.721 170.829C259.624 170.803 259.511 170.897 259.531 171.015C259.706 172.1 259.952 173.353 259.679 174.44C259.465 175.302 258.709 176.256 257.727 176.003C257.881 175.862 257.938 175.62 257.835 175.395C257.444 174.563 252.35 171.279 251.894 172.499C251.879 172.542 251.926 172.574 251.964 172.567C252.351 172.487 252.999 173.147 253.31 173.356C253.757 173.659 254.211 173.955 254.654 174.264C255.138 174.603 255.611 174.958 256.072 175.325C256.434 175.615 256.708 175.914 257.124 176.06C256.906 176.165 256.733 176.357 256.658 176.603C256.47 177.246 256.11 177.791 255.48 178.074C254.822 178.37 254.079 178.183 253.385 178.255C252.439 178.351 251.615 178.8 250.926 179.443C249.48 180.794 248.754 183.175 246.73 183.813C245.522 184.195 244.181 183.954 242.957 183.781C241.591 183.589 240.26 183.436 238.884 183.637C237.566 183.831 236.322 184.287 235.117 184.843C233.989 185.365 232.743 185.955 231.742 186.732C231.536 186.098 231.327 185.468 231.169 184.82C230.799 183.286 230.597 181.723 230.548 180.146C230.503 178.645 230.587 177.138 230.715 175.644C230.78 174.898 230.88 174.156 230.943 173.41C230.96 173.222 230.995 173.021 231.019 172.82C232.806 171.765 234.683 170.955 236.576 170.125C236.581 170.123 236.586 170.12 236.591 170.118C236.649 170.091 236.707 170.066 236.765 170.04C236.764 170.037 236.762 170.033 236.759 170.03C236.975 169.899 237.126 169.722 237.216 169.525C239.944 167.715 242.224 165.245 243.924 162.364C244.635 161.157 245.321 159.904 246.253 158.846C247.245 157.718 248.423 157.047 249.882 156.698C251.587 156.289 253.343 156.044 255.09 155.905C256.043 155.83 257.11 155.712 258.149 155.718C258.873 155.722 259.583 155.784 260.232 155.964C261.196 156.229 261.759 156.962 262.364 157.703C262.942 158.414 263.517 159.126 264.057 159.868C264.569 160.57 265.053 161.296 265.471 162.057C265.722 162.513 265.955 162.983 266.151 163.467C266.221 163.639 266.311 163.833 266.352 164.011C266.395 164.19 266.317 164.38 266.518 164.38C265.689 164.391 265.697 165.718 266.522 165.669C269.75 165.481 265.126 159.177 264.45 158.298C263.492 157.054 262.505 155.431 260.973 154.852C260.952 154.844 260.929 154.836 260.907 154.829C261.352 154.406 261.705 153.9 262.042 153.385C262.389 152.855 262.803 152.248 262.916 151.619C262.989 151.219 262.491 150.99 262.255 151.341C261.911 151.852 261.744 152.5 261.489 153.061C261.226 153.631 260.909 154.17 260.656 154.745C260.051 154.559 259.398 154.473 258.732 154.445C259.573 153.308 261.007 151.115 261.179 150.833C261.974 149.528 262.73 148.184 263.453 146.837C264.234 145.378 264.903 143.859 265.651 142.384C266.075 141.547 266.502 140.703 266.974 139.892C267.135 139.613 267.309 139.335 267.507 139.082C267.547 139.032 267.595 138.99 267.64 138.943C267.691 138.914 267.746 138.882 267.776 138.866C268.047 138.71 268.143 138.348 268.334 138.118C268.638 137.747 268.997 137.704 269.458 137.698C270.436 137.689 271.418 137.727 272.395 137.754C273.833 137.794 275.267 137.851 276.702 137.927C277.136 137.95 277.568 137.973 278.003 138C280.089 138.125 282.174 138.287 284.254 138.487C286.095 138.663 287.936 138.95 289.778 139.087C287.283 145.015 284.519 150.835 281.386 156.452C281.355 156.509 281.332 156.566 281.317 156.623ZM267.477 171.893C267.075 172.079 266.684 172.308 266.321 172.569C266.382 172.162 266.397 171.733 266.38 171.301C266.679 171.623 267.063 171.808 267.477 171.893ZM284.65 161.697C284.622 161.7 284.595 161.715 284.582 161.744C284.025 162.892 284.258 164.175 285.167 165.075C285.643 165.545 286.68 166.075 286.647 166.846C286.619 167.469 285.939 167.993 285.65 168.508C285.379 168.988 285.28 169.515 285.496 170.033C285.771 170.699 286.544 170.964 286.81 171.618C287.146 172.449 286.601 173.449 286.218 174.172C285.863 174.842 285.403 175.51 285.098 176.218C283.055 177.276 281.225 178.9 279.653 180.548C277.932 182.351 276.455 184.471 273.721 184.418C273.449 184.413 273.241 184.557 273.117 184.757C272.356 184.792 271.593 184.807 270.832 184.81C269.494 184.817 268.157 184.803 266.821 184.762C266.726 184.438 266.796 183.999 266.791 183.725C266.774 182.844 266.766 181.965 266.728 181.086C266.718 180.84 266.708 180.594 266.698 180.35C267.18 181.219 268.118 181.615 269.187 181.555C270.907 181.455 272.636 181.173 274.34 180.92C275.237 180.787 276.132 180.636 277.025 180.475C277.759 180.345 278.796 180.378 279.308 179.789C279.429 179.652 279.436 179.4 279.246 179.308C278.738 179.059 278.419 179.197 277.86 179.305C277.179 179.438 276.498 179.563 275.813 179.681C274.501 179.908 273.185 180.119 271.865 180.305C271.114 180.412 270.362 180.515 269.609 180.598C268.953 180.668 268.211 180.764 267.681 180.269C266.615 179.27 267.213 177.595 267.887 176.585C267.901 176.565 267.901 176.547 267.896 176.53C268.534 176.381 269.169 176.206 269.802 176.083C271.021 175.849 272.248 175.651 273.477 175.475C276.001 175.114 278.542 174.877 281.081 174.638C281.709 174.576 281.715 173.587 281.081 173.646C277.433 173.98 273.77 174.297 270.172 174.998C269.272 175.173 268.376 175.37 267.485 175.595C267.065 175.698 266.615 175.86 266.173 175.865C266.146 175.865 266.119 175.865 266.093 175.864C265.229 175.837 265.104 175.098 265.578 174.483C265.638 174.407 265.697 174.332 265.759 174.259C266.598 173.26 267.642 172.592 268.718 171.903C269.923 171.738 271.124 171.372 272.306 171.103C275.219 170.44 278.131 169.776 281.047 169.113C281.617 168.983 281.375 168.104 280.803 168.234C278.592 168.734 276.378 169.236 274.165 169.737L270.927 170.472C270.28 170.618 269.473 170.911 268.712 171.017C268.336 171.068 267.972 171.075 267.643 170.999C266.583 170.746 266.528 169.42 266.987 168.632C267.499 167.747 268.467 167.193 269.328 166.692C270.819 165.822 272.404 165.196 273.952 164.475C274.228 164.415 274.502 164.354 274.778 164.294C276.377 163.942 278.204 163.769 279.708 163.124C280.16 162.933 279.913 162.222 279.467 162.232C278.299 162.257 277.078 162.673 275.936 162.919C274.7 163.188 273.464 163.454 272.228 163.721C272.105 163.747 271.37 163.982 271.259 163.93C271.189 163.897 271.164 163.652 271.139 163.491C271.064 162.961 271.01 162.405 271.091 161.873C271.272 160.681 272.266 160.121 273.273 159.663C275.511 158.645 277.967 158.008 280.411 157.753C280.974 157.694 281.538 157.657 282.104 157.639C282.769 157.619 283.317 157.501 283.655 158.157C284.185 159.19 284.477 160.518 284.65 161.697ZM281.541 199.146C281.052 197.458 281.185 195.657 280.851 193.934C280.679 193.047 280.443 192.164 280.185 191.297C279.979 190.597 279.632 189.851 279.594 189.12C279.59 189.072 279.648 189.044 279.688 189.067C280.376 189.461 280.905 190.313 281.297 190.983C281.767 191.784 282.126 192.621 282.417 193.504C282.993 195.258 283.467 197.377 282.722 199.146C282.501 199.673 281.724 199.779 281.541 199.146ZM266.46 176.786C266.872 176.746 267.284 176.666 267.696 176.575C267.236 177.025 266.811 177.565 266.573 178.167C266.537 177.705 266.49 177.246 266.429 176.788C266.439 176.788 266.45 176.788 266.46 176.786ZM262.497 211.928C261.769 211.419 261.239 210.71 260.623 210.083C260.016 209.468 260.965 208.52 261.572 209.134C262.098 209.669 262.554 210.336 263.173 210.769C263.473 210.977 263.61 211.353 263.414 211.687C263.242 211.981 262.795 212.134 262.497 211.928ZM258.441 192.418C259.769 191.844 261.075 191.219 262.464 190.805C263.295 190.557 263.645 191.852 262.821 192.098C261.542 192.48 260.34 193.048 259.119 193.577C258.333 193.916 257.652 192.759 258.441 192.418ZM244.424 192.016C244.098 191.215 245.397 190.87 245.717 191.659C246.085 192.568 246.507 193.455 246.875 194.364C247.199 195.165 245.903 195.511 245.582 194.72C245.213 193.811 244.791 192.925 244.424 192.016ZM230.587 208.016C230.37 208.304 230.011 208.461 229.67 208.257C229.384 208.086 229.21 207.631 229.429 207.34C230.067 206.487 230.715 205.645 231.465 204.886C232.071 204.269 233.02 205.218 232.414 205.834C231.744 206.512 231.157 207.255 230.587 208.016ZM228.608 118.242C229.223 118.663 229.763 119.173 230.288 119.699C230.9 120.31 229.951 121.259 229.341 120.648C228.898 120.205 228.451 119.755 227.932 119.4C227.631 119.196 227.497 118.814 227.691 118.483C227.864 118.186 228.309 118.038 228.608 118.242ZM248.739 139.829C248.39 140.526 248.078 141.209 248.058 142.001C248.036 142.864 246.695 142.865 246.717 142.001C246.742 140.964 247.124 140.065 247.581 139.152C247.966 138.378 249.123 139.058 248.739 139.829ZM256.125 122.492C256.846 122.011 257.516 123.173 256.801 123.65C256.223 124.036 255.643 124.423 255.063 124.809C254.342 125.29 253.672 124.127 254.387 123.651C254.965 123.264 255.545 122.878 256.125 122.492ZM224.089 152.804C223.966 153.656 222.673 153.291 222.796 152.447C222.984 151.142 223.215 149.855 223.569 148.584C223.8 147.752 225.093 148.107 224.862 148.94C224.508 150.211 224.277 151.499 224.089 152.804ZM219.387 168.169C218.524 168.151 218.524 166.81 219.387 166.828C220.169 166.845 220.937 167.051 221.69 167.238C222.529 167.448 222.17 168.742 221.334 168.533C220.696 168.373 220.048 168.184 219.387 168.169ZM217.652 199.123C217.354 199.268 217.05 199.397 216.751 199.535C216.151 199.809 215.552 200.084 214.952 200.359C213.702 200.933 212.453 201.509 211.205 202.087C208.707 203.244 206.192 204.359 203.688 205.502C201.134 206.67 198.588 207.852 196.044 209.04C194.846 209.6 193.64 210.138 192.433 210.683C191.403 211.15 190.13 211.964 188.999 212.041C188.941 212.044 188.922 211.971 188.956 211.932C189.383 211.447 190.064 211.165 190.626 210.847C191.199 210.525 191.784 210.221 192.365 209.914C193.578 209.271 194.791 208.633 196.016 208.013C198.465 206.773 200.919 205.544 203.374 204.314C205.876 203.059 208.375 201.798 210.901 200.589C212.089 200.019 213.28 199.452 214.47 198.885C215.115 198.58 215.761 198.272 216.406 197.968C216.685 197.835 216.961 197.692 217.245 197.574C217.624 197.418 217.913 197.45 218.303 197.353C218.94 197.197 219.215 198.007 218.727 198.36C218.323 198.65 218.112 198.899 217.652 199.123ZM208.699 212.878C208.561 212.544 208.85 212.137 209.168 212.054C209.548 211.952 209.854 212.183 209.992 212.521C210.361 213.416 210.884 214.237 211.557 214.93C212.16 215.55 211.213 216.499 210.61 215.879C209.764 215.01 209.158 213.995 208.699 212.878ZM202.114 191.347C201.503 190.735 202.45 189.786 203.061 190.398L204.799 192.136C205.411 192.747 204.462 193.696 203.85 193.085L202.114 191.347ZM184.283 188.512C183.034 188.879 181.576 189.215 180.724 190.282C180.683 190.335 180.613 190.267 180.638 190.215C181.728 187.954 184.856 187.159 187.022 186.369C188.554 185.807 190.124 185.343 191.709 184.928C191.551 183.118 191.988 181.181 192.139 179.381C192.302 177.461 192.433 175.533 192.502 173.606C192.57 171.64 192.586 169.661 192.523 167.695C192.458 165.735 192.204 163.8 192.093 161.847C192.081 161.658 192.344 161.649 192.402 161.805C193.06 163.617 193.341 165.625 193.555 167.536C193.776 169.503 193.849 171.467 193.821 173.446C193.791 175.482 193.673 177.512 193.51 179.541C193.434 180.503 193.344 181.463 193.259 182.426C193.196 183.158 193.166 183.886 193.017 184.596C193.972 184.361 194.929 184.14 195.885 183.924C198.93 183.236 201.988 182.598 205.02 181.856C206.509 181.49 207.976 181.053 209.457 180.666C210.852 180.3 212.326 179.857 213.759 179.694C214.269 179.636 214.334 180.335 213.996 180.573C212.831 181.39 211.284 181.96 209.94 182.417C208.591 182.877 207.187 183.208 205.804 183.547C202.92 184.258 200.007 184.838 197.099 185.443C194.195 186.046 191.285 186.646 188.414 187.39C187.032 187.749 185.654 188.11 184.283 188.512ZM177.436 152.625C176.69 153.063 176.015 151.903 176.759 151.466C177.733 150.895 178.77 150.466 179.817 150.047C180.619 149.725 180.963 151.023 180.172 151.34C179.232 151.717 178.311 152.111 177.436 152.625ZM174.732 202.461C173.985 202.897 173.31 201.737 174.056 201.303C175.104 200.695 176.253 200.29 177.339 199.758C178.112 199.379 178.79 200.537 178.016 200.916C176.929 201.448 175.781 201.853 174.732 202.461ZM173.516 174.172C174.24 174.86 175.206 175.184 176.118 175.545C176.912 175.859 176.563 177.157 175.761 176.839C174.626 176.389 173.469 175.977 172.569 175.121C171.941 174.525 172.891 173.577 173.516 174.172ZM181.525 135.752C182.319 136.065 181.972 137.362 181.168 137.046C180.277 136.696 179.355 136.43 178.464 136.08C177.668 135.768 178.017 134.471 178.821 134.787C179.712 135.136 180.633 135.403 181.525 135.752ZM195.65 120.492C196.496 120.35 196.857 121.643 196.008 121.786C194.954 121.964 193.916 122.172 192.917 122.559C192.111 122.871 191.764 121.573 192.561 121.265C193.56 120.878 194.597 120.67 195.65 120.492ZM200.318 157.647C199.544 157.266 200.223 156.11 200.994 156.489C201.808 156.889 202.651 157.198 203.538 157.387C204.384 157.567 204.023 158.86 203.181 158.681C202.182 158.468 201.232 158.097 200.318 157.647ZM204.726 136.718C205.562 136.49 205.914 137.784 205.083 138.012C203.621 138.413 202.114 138.621 200.642 138.978C199.801 139.181 199.447 137.887 200.285 137.684C201.758 137.327 203.264 137.119 204.726 136.718ZM223.428 130.151C224.277 130.308 223.914 131.6 223.07 131.444C222.173 131.278 221.262 131.276 220.352 131.275C219.488 131.275 219.49 129.933 220.352 129.934C221.387 129.934 222.407 129.962 223.428 130.151ZM284.419 137.159C282.229 136.949 280.034 136.781 277.837 136.656C277.734 136.65 277.634 136.644 277.531 136.639C277.52 136.615 277.505 136.594 277.49 136.57C276.772 135.517 276.244 134.464 275.787 133.273C275.35 132.14 274.924 130.971 274.251 129.949C273.482 128.783 272.445 127.871 271.307 127.081C270.617 127.545 269.978 128.088 269.393 128.664C268.776 129.27 267.828 128.322 268.444 127.716C268.964 127.204 269.519 126.731 270.107 126.304C269.429 125.892 268.737 125.505 268.062 125.119C265.533 123.676 262.942 122.341 260.301 121.12C259.071 120.552 257.828 120.047 256.575 119.536C255.901 119.261 255.236 118.907 254.561 118.588C254.611 118.112 254.468 117.579 254.103 117.265C253.833 117.035 253.624 116.95 253.302 116.788C253.229 116.762 253.185 116.747 253.166 116.739C253.18 116.742 253.224 116.755 253.297 116.779C253.468 116.858 253.481 116.834 253.337 116.71C253.328 116.439 252.793 115.865 252.672 115.585C252.245 114.624 252.114 113.608 251.484 112.733C250.618 111.527 249.163 111.071 247.807 111.48C247.666 110.03 247.629 108.516 247.082 107.221C247.067 107.186 247.019 107.171 246.998 107.209C246.428 108.181 246.378 109.262 246.335 110.382C246.293 111.433 246.333 112.508 246.471 113.553C246.383 113.62 246.295 113.684 246.203 113.746C245.77 114.031 245.304 114.25 244.814 114.413C243.882 114.721 242.905 114.856 241.928 114.903C239.406 115.023 236.805 114.769 234.324 114.336C231.815 113.898 227.969 113.241 225.736 111.985C224.262 111.157 222.902 110.146 221.525 109.166C222.025 107.557 222.151 105.826 221.65 104.466C221.588 104.304 221.334 104.273 221.286 104.466C220.97 105.764 220.879 107.069 220.458 108.351C220.452 108.37 220.445 108.39 220.438 108.408C220.309 108.32 220.177 108.232 220.046 108.145C219.745 107.946 219.333 108.095 219.152 108.38C216.258 112.942 211.673 113.204 206.86 114.019C201.591 114.911 196.295 115.873 191.23 117.619C186.385 119.289 181.756 121.721 178.089 125.353C177.258 126.175 176.482 127.051 175.749 127.966C176.459 128.055 177.162 128.194 177.856 128.412C178.677 128.671 178.325 129.965 177.499 129.706C176.607 129.425 175.704 129.287 174.794 129.218C172.301 132.628 170.359 136.495 168.677 140.301C165.455 147.599 163.357 155.37 162.392 163.282C162.922 162.965 163.462 162.662 164.014 162.38C164.783 161.989 165.461 163.147 164.691 163.539C163.837 163.973 163.007 164.452 162.204 164.972C161.852 168.435 161.716 171.921 161.799 175.402C161.995 183.698 163.115 192.237 165.647 200.153C166.889 204.04 168.536 207.893 170.989 211.176C172.097 212.664 173.358 214.005 174.844 215.123C175.563 215.666 176.324 216.151 177.127 216.56C178.16 217.09 179.508 217.265 180.4 218.014C180.694 218.26 180.92 218.586 181.091 218.953C180.992 219.651 180.98 220.349 181.171 221.046C181.231 221.264 181.395 221.442 181.598 221.528C181.601 221.588 181.601 221.646 181.601 221.704C181.601 221.731 181.641 221.738 181.648 221.711C181.656 221.66 181.665 221.606 181.673 221.553C181.738 221.575 181.806 221.585 181.877 221.585C184.423 221.595 186.972 221.533 189.522 221.447C189.325 220.842 189.112 220.244 188.906 219.639C188.628 218.818 189.923 218.469 190.199 219.282C190.44 219.988 190.69 220.689 190.913 221.397C193.645 221.296 196.376 221.174 199.102 221.083C204.901 220.89 210.696 220.827 216.495 220.704C225.503 220.513 234.575 220.123 243.595 220.505C243.907 219.843 244.256 219.195 244.588 218.542C244.979 217.771 246.135 218.451 245.745 219.22C245.515 219.674 245.276 220.123 245.05 220.575C246.878 220.669 248.702 220.796 250.524 220.967C253.631 221.257 256.71 221.776 259.814 222.098C262.969 222.427 266.058 222.367 269.188 221.847C269.752 221.753 270.084 221.412 270.222 220.99C270.227 220.988 270.23 220.985 270.234 220.98C270.393 220.792 270.544 220.636 270.701 220.5C270.887 220.38 271.088 220.277 271.324 220.187C271.766 220.02 272.224 219.917 272.691 219.848C273.203 219.77 273.723 219.764 274.236 219.701C274.669 219.646 275.091 219.563 275.513 219.463C276.272 219.282 276.993 219.044 277.711 218.732C278.336 218.458 278.901 218.066 279.434 217.639C280.537 216.831 281.493 215.802 282.327 214.732C282.814 214.106 283.271 213.458 283.686 212.782C284.411 211.612 285.027 210.396 285.652 209.171C285.878 208.807 286.084 208.435 286.273 208.056C285.054 207.695 283.824 207.403 282.531 207.383C281.669 207.368 281.669 206.027 282.531 206.04C284.013 206.065 285.416 206.411 286.808 206.823C286.875 206.644 286.941 206.461 287.001 206.278C287.167 205.894 287.303 205.5 287.418 205.1C287.485 204.919 287.553 204.738 287.619 204.557C287.77 203.93 287.922 203.302 288.073 202.672C288.377 201.667 288.616 200.645 288.792 199.61C288.94 198.93 289.055 198.244 289.131 197.55C289.366 195.868 289.557 194.19 289.57 192.49C289.55 191.441 289.483 190.395 289.369 189.354C289.321 188.647 289.239 187.942 289.128 187.243C288.983 186.202 288.84 185.174 288.601 184.147C288.422 183.454 288.242 182.76 288.063 182.065C287.616 180.618 287.087 179.199 286.479 177.813C286.446 177.725 286.277 177.534 286.174 177.532C286.097 177.53 285.989 177.602 286.026 177.695C286.029 177.703 286.032 177.713 286.036 177.721C286.001 177.643 285.966 177.562 285.931 177.484C285.901 177.411 285.783 177.263 285.693 177.265C285.688 177.265 285.683 177.265 285.677 177.266C285.7 177.25 285.722 177.228 285.743 177.201C286.345 176.49 286.735 175.551 287.167 174.727C287.524 174.046 287.86 173.328 287.958 172.559C288.043 171.884 287.928 171.218 287.503 170.671C287.021 170.048 286.112 169.757 286.617 168.858C287.19 167.835 288.033 166.949 287.194 165.786C286.767 165.195 286.089 164.869 285.585 164.354C285.007 163.759 284.733 162.963 284.748 162.149C284.783 162.17 284.829 162.16 284.846 162.109C285.333 160.64 284.98 159.027 284.484 157.597C284.211 156.821 283.636 156.608 282.968 156.569C285.864 150.91 288.575 145.16 290.991 139.278C291.07 139.085 291.15 138.893 291.228 138.7C291.346 138.411 291.097 138.027 290.811 137.964C288.722 137.506 286.546 137.36 284.419 137.159Z" fill="black"/>
<path fill-rule="evenodd" clip-rule="evenodd" d="M211.266 9.95247C212.296 9.79762 213.074 10.4374 213.445 11.3392L213.465 11.3878C213.584 11.6947 213.715 11.9931 213.858 12.2866C216.439 11.0206 220.119 11.3459 221.753 13.9097C222.917 15.7408 222.206 17.9139 221.768 19.8556L221.478 21.1349C222.037 21.4898 222.456 22.1251 222.437 22.7829L222.434 22.8336L222.318 24.6177C222.69 24.2405 223.029 23.8296 223.333 23.3919C223.542 23.0079 223.768 22.6307 224.011 22.2651C225.441 20.1138 228.652 21.9835 227.472 24.2873C227.244 24.7316 226.99 25.1525 226.718 25.5583C226.408 26.157 226.156 26.7723 225.962 27.4045C226.52 27.6476 226.949 28.1876 226.993 29.0025C227.1 30.9057 226.099 32.4936 224.511 33.4912C224.044 33.7846 223.561 33.8418 223.124 33.7328C223.045 33.8366 222.969 33.9407 222.896 34.0463C223.529 34.5611 224.101 35.148 224.591 35.7985C226.07 35.5772 227.557 35.4732 229.044 35.4698C230.86 34.5795 233.037 34.598 234.989 34.9316C236.247 35.1463 237.453 35.5637 238.691 35.864C239.994 36.1792 241.318 36.1908 242.638 36.4055C244.301 36.6755 245.76 37.4435 246.675 38.6691C247.684 38.6994 248.742 39.1119 249.621 39.6719C251.667 40.9764 253.699 42.2994 255.739 43.6124C256.522 44.1164 256.814 44.9211 256.672 45.8186L256.662 45.876L256.593 46.2482L256.755 46.4774C257.378 47.3594 258.057 48.2831 258.461 49.2564C259.209 50.3347 259.885 51.4647 260.483 52.6302C261.289 54.1963 261.955 55.8564 262.406 57.5599C262.519 57.9909 262.63 58.4251 262.705 58.8644C262.81 59.4849 262.647 59.9661 262.559 60.5614C262.447 61.3159 262.407 62.0806 262.289 62.8368C262.211 63.3381 261.786 63.5846 261.339 63.598C261.507 64.8741 261.628 66.1586 261.744 67.4329C261.906 69.2538 262.017 71.0799 262.113 72.9059C262.605 73.6219 263.612 74.1887 264.34 74.3849C265.348 74.6547 266.404 74.3613 267.356 74.0177C267.954 73.8013 268.446 74.5542 268.153 75.0572C267.236 76.6367 265.275 76.6301 263.79 75.9309C263.162 75.6358 262.61 75.2082 262.201 74.6514C262.226 75.1813 262.253 75.7112 262.279 76.2427L262.304 76.7241C262.607 82.3469 263.26 88.1628 262.203 93.7299C260.374 103.373 252.396 110.716 242.651 111.286C237.538 111.585 233.279 110.074 231.161 109.231C229.044 108.389 229.866 106.67 231.337 107.161C233.869 108.008 238.522 109.268 242.686 108.724C252.498 107.441 260.819 102.534 259.963 81.4039C259.842 78.4073 259.47 75.4093 259.388 72.4129C259.312 69.4836 259.34 66.5525 259.21 63.6249L259.167 62.626C259.117 61.4589 259.064 60.2862 258.976 59.1176C258.871 58.6648 258.783 58.2054 258.654 57.7611C258.305 56.5521 257.846 55.3767 257.278 54.2549C257.152 54.3506 257.012 54.4192 256.859 54.4462C255.701 54.654 254.614 54.5954 253.529 54.1125C253.024 53.8894 252.577 53.5926 252.162 53.2254C251.964 53.0527 251.833 52.8851 251.728 52.7106C251.203 52.7191 250.678 52.5614 250.351 52.1842C249.975 51.7542 249.914 51.31 250.06 50.8988L250.075 50.8577L250.038 50.8444C249.596 51.9896 248.714 52.9974 247.747 53.6782C246.218 54.758 244.306 55.0699 242.471 55.0983C240.448 55.1286 238.312 54.8167 236.313 54.4982C235.785 54.4143 235.262 54.3187 234.747 54.1896C234.727 54.2097 234.707 54.2331 234.683 54.2533C232.969 55.8949 230.558 56.3175 228.381 55.3802C227.125 54.8385 226.07 53.9666 225.137 52.9672C225.124 53.4904 225.098 54.0135 225.053 54.5316L225.034 54.7374C224.941 55.7023 224.762 56.7261 224.034 57.4225C222.854 58.5509 221.145 58.0982 219.785 57.3638C219.787 57.399 219.787 57.4359 219.787 57.4728C220.154 58.7202 220.523 59.9695 220.892 61.2187L220.972 61.4848C221.239 62.3717 221.533 63.2599 221.615 64.1882C221.769 65.9623 220.588 67.7145 218.617 67.1193C217.584 66.8083 216.755 65.9386 215.96 65.2418L215.46 64.8087C216.755 69.046 217.653 73.4341 217.737 77.8558C217.743 78.0956 217.535 78.2767 217.308 78.285C216.774 78.3068 216.201 78.2013 215.666 77.9883C215.635 77.9866 215.605 77.9849 215.573 77.9798C214.658 77.8474 213.808 77.517 213.059 77.0292C213.232 77.5775 213.308 78.1661 213.263 78.7814C213.252 78.9306 213.019 78.9826 212.986 78.8182C212.552 76.6904 210.063 75.0824 207.918 75.4899C205.615 75.9275 203.919 77.9095 203.503 80.1647C203.056 82.5876 203.91 85.3896 205.49 87.2593C206.218 88.1211 207.175 88.8405 208.312 89.0216C208.832 89.1037 209.372 89.0752 209.875 88.9277C210.09 88.8639 210.291 88.775 210.495 88.6912C210.794 88.5704 211.143 88.552 211.424 88.4245C212.064 88.1379 212.705 88.7265 212.381 89.382C212.1 89.9539 211.848 90.3396 211.379 90.6347C211.758 91.0974 212.102 91.7413 212.23 91.9139C212.88 92.7926 213.539 93.6226 214.28 94.4258C215.035 95.2408 215.859 95.9852 216.728 96.6745L217.093 96.9634C217.933 97.6282 218.662 98.2444 219.252 99.198C219.719 99.9509 219.116 100.972 218.242 100.96C215.51 100.922 213.523 98.5205 212.109 96.4229C211.908 96.1228 211.718 95.8058 211.542 95.4806C211.479 95.5828 211.407 95.6783 211.329 95.7656L211.486 96.1848C211.947 97.4189 209.955 98.2254 209.377 97.0734C208.955 96.2385 208.468 95.4437 207.925 94.6925C207.604 94.6471 207.292 94.4527 207.117 94.2012C206.675 93.5623 206.182 92.9167 205.765 92.236C205.532 92.0163 205.294 91.8049 205.052 91.5987C204.982 91.6609 204.909 91.7229 204.841 91.7883C204.535 92.484 204.158 93.1196 203.691 93.7183L203.59 93.8459C202.694 94.9755 201.527 96.1315 200.084 96.4078C199.642 96.4917 199.218 95.9434 199.608 95.5929C200.62 94.684 201.815 94.0654 202.747 93.0508C203.206 92.551 203.628 92.0007 203.99 91.4238L204.073 91.2902C204.133 91.1913 204.194 91.0924 204.259 90.9917C203.839 90.7051 203.417 90.4167 202.996 90.1282C201.838 91.118 200.329 91.5708 199.048 92.3908L198.922 92.4741C197.764 93.2487 196.543 91.5351 197.471 90.5943C198.495 89.5613 199.349 88.3293 200.256 87.1812C199.831 86.3954 199.628 85.4662 199.553 84.5272C199.524 84.2615 199.5 83.9955 199.477 83.7297C198.826 83.7396 198.173 83.5166 197.619 83.1326L197.41 82.9834C196.737 83.1981 196.032 83.302 195.356 83.2835C193.768 83.2367 193.116 81.4207 194.11 80.272C195.125 79.0982 196.9 78.8417 198.306 79.4118C198.352 79.3884 198.399 79.3633 198.444 79.338C198.377 79.0296 198.392 78.7496 198.468 78.5039L198.445 78.354C198.136 77.8793 197.933 77.3373 197.855 76.7647C197.795 76.3112 197.807 75.8616 197.912 75.4138C197.947 75.2647 198.02 75.1102 198.075 74.9548C197.962 74.666 197.894 74.3676 197.874 74.0674C197.84 74.0293 197.809 73.9903 197.779 73.9481C197.081 72.9679 197.222 71.787 197.887 70.9939C197.889 70.9434 197.894 70.8928 197.9 70.8428C197.862 70.7553 197.827 70.6669 197.794 70.5775C197.144 69.9228 196.669 69.1349 196.757 68.1585C196.81 67.5839 197.046 67.0668 197.403 66.6803C197.339 66.4929 197.334 66.2757 197.41 66.0944C196.84 64.5777 196.911 62.7508 197.322 61.0544C197.232 60.7962 197.186 60.516 197.196 60.2193C197.242 58.9601 198.332 57.8031 199.622 57.8181C199.778 57.8194 199.922 57.8398 200.064 57.8694L200.065 57.8395C200.113 57.4615 200.218 57.1122 200.369 56.7988C200.295 56.7718 200.226 56.733 200.165 56.6815C199.339 57.123 198.463 57.4603 197.546 57.6901C196.872 57.8593 196.18 57.0921 196.599 56.4585C196.794 56.1646 197.01 55.9007 197.241 55.6596C196.912 55.6615 196.578 55.6837 196.24 55.7271C195.632 55.806 194.956 55.3918 194.562 54.8318C194.072 55.308 193.582 55.7824 193.09 56.257C191.847 57.4627 189.968 56.5757 189.772 54.986C189.401 54.8872 189.055 54.7195 188.751 54.4797C186.791 55.3315 184.68 55.7992 182.524 55.8881C180.973 55.9519 180.069 54.1476 180.792 52.8733C181.279 52.018 181.882 51.2502 182.578 50.5827C181.498 50.9131 180.383 51.1512 179.245 51.3039C178.63 51.386 177.761 50.8762 177.514 50.3112C176.572 48.138 176.653 45.8727 177.736 43.7583C177.78 43.6744 177.826 43.594 177.871 43.5134C177.984 43.2334 178.105 42.9568 178.238 42.6851C176.904 41.2933 176.788 39.2243 177.507 37.492C177.22 37.0243 177.108 36.4608 177.304 35.951C177.863 34.4838 178.667 33.1291 179.684 31.9653C179.586 31.7776 179.501 31.578 179.428 31.3635C178.856 29.6279 179.519 27.5336 180.855 26.3246C181.694 25.5635 182.66 25.1073 183.692 24.8156C184.125 24.0476 184.684 23.355 185.333 22.7716C185.358 22.7163 185.385 22.6609 185.413 22.6056C186.425 20.6974 188.269 19.6745 190.245 19.4381C190.323 18.6918 190.825 17.9793 191.556 17.7479C191.757 17.1023 192.058 16.4852 192.47 15.9252C193.118 15.0432 194.196 14.6274 195.212 15.2059C195.768 15.5228 196.302 15.8866 196.802 16.2891C197.026 16.1838 197.28 16.1157 197.566 16.094L197.639 16.0895L199.293 16.0057C199.984 15.6988 200.675 15.3769 201.368 15.0633C201.783 14.7196 202.247 14.4329 202.754 14.2199C203.327 13.9801 203.914 13.8443 204.502 13.799C204.98 13.6431 205.461 13.5056 205.951 13.3983C207.101 13.1468 208.304 13.0059 209.497 13.0176C209.522 12.7086 209.533 12.3959 209.531 12.0795L209.528 11.921C209.502 10.9066 210.312 10.0967 211.266 9.95247ZM210.106 91.1175C209.944 91.1528 209.777 91.1812 209.611 91.2014C209.661 91.3254 209.711 91.4495 209.761 91.5736C209.894 91.6491 210.03 91.7212 210.166 91.7882C210.126 91.5602 210.101 91.3306 210.106 91.1175ZM201.496 88.5576L201.383 88.7629C201.366 88.7964 201.348 88.8297 201.33 88.8622C201.567 88.8438 201.805 88.8488 202.039 88.8757V88.8508C202.009 88.8405 201.978 88.831 201.95 88.817C201.788 88.7391 201.637 88.652 201.496 88.5576ZM206.15 79.1923C207.632 79.2787 208.888 79.506 210.238 80.155L210.354 80.2117C211.545 80.8035 213.516 81.8969 213.35 83.4646C213.303 83.9108 212.981 84.3802 212.471 84.345C211.075 84.2494 210.276 82.8409 209.33 81.9622C208.377 81.0769 207.205 80.1665 206.05 79.5577C205.888 79.4721 205.952 79.2008 206.128 79.1921L206.15 79.1923ZM199.424 58.5357C199.068 58.5475 199.188 58.893 199.371 58.6045C199.386 58.5811 199.404 58.5577 199.424 58.5357ZM218.607 35.4763C215.241 35.5647 211.854 37.5527 209.332 39.5619C207.139 41.3099 205.246 43.3893 203.568 45.6303C203.138 46.7462 202.767 47.8856 202.453 49.0334C202.247 49.7913 202.117 50.5576 201.946 51.3223L201.891 51.5566C201.757 51.8102 201.655 52.083 201.582 52.3648C201.888 52.6714 202.284 52.8909 202.721 52.9951C202.862 53.0285 202.978 53.1011 203.071 53.1975C203.422 52.6109 203.729 51.9918 203.907 51.3355L203.914 51.3052C204.59 50.1986 205.323 49.1265 206.109 48.0911C208.279 45.2322 210.666 42.6264 213.538 40.4583C215.716 38.815 218.15 37.5273 220.737 36.6906C220.104 36.1794 219.385 35.7749 218.607 35.4763Z" fill="black"/>
<path fill-rule="evenodd" clip-rule="evenodd" d="M248.947 97.6524C247.712 98.0101 246.386 98.042 245.128 97.6726C243.987 97.3375 242.814 96.5999 241.974 95.6239C241.227 94.757 240.743 93.7034 240.763 92.5786C240.765 92.4502 240.811 92.343 240.881 92.2598C240.958 92.1702 241.064 92.1087 241.177 92.082C241.295 92.0545 241.418 92.0642 241.524 92.112C241.619 92.1554 241.7 92.229 241.752 92.3365C241.881 92.5063 242.009 92.6735 242.139 92.836C243.178 94.1184 244.183 95.0768 245.743 95.4206C246.59 95.6071 247.436 95.5243 248.212 95.2399C249.045 94.9351 249.796 94.3994 250.384 93.714C250.65 93.4041 250.964 93.2777 251.271 93.2755C251.619 93.2732 251.962 93.4348 252.222 93.6934C252.476 93.9476 252.647 94.2929 252.662 94.6541C252.677 94.9712 252.572 95.3023 252.298 95.5979C251.391 96.5711 250.218 97.2841 248.947 97.6524ZM248.908 81.59C250.175 82.3597 252.104 84.1544 250.741 86.0624C249.139 87.7448 246.831 85.8158 245.693 84.9435C244.64 84.2674 243.455 86.0063 244.432 86.7957C252.65 92.8817 255.985 81.7912 249.55 80.6851C248.84 80.5631 248.578 81.3519 248.908 81.59ZM237.068 78.2035C236.661 77.9431 236.182 77.8539 235.652 78.0951C235.238 78.2837 234.511 78.9123 234.005 79.7385C233.658 80.3038 233.414 80.9669 233.464 81.6578C233.477 81.8182 233.417 81.9365 233.324 82.0239C233.249 82.093 233.143 82.1437 233.018 82.1596C232.912 82.1731 232.792 82.1609 232.696 82.1307C232.512 82.0732 232.414 81.9537 232.377 81.8562C232.023 80.9152 232.176 79.8651 232.573 78.9176C233.108 77.639 234.082 76.5681 234.718 76.2228C235.81 75.6318 237.096 75.6045 238.189 76.2067C239.12 76.7192 239.7 77.5466 240.278 78.3901C240.401 78.5694 240.524 78.7473 240.65 78.9221C240.903 79.2726 240.928 79.62 240.83 79.9179C240.722 80.2481 240.444 80.5266 240.099 80.6725C239.779 80.8072 239.409 80.8262 239.08 80.6878C238.804 80.5708 238.55 80.3428 238.389 79.956C238.118 79.3045 237.666 78.5856 237.068 78.2035ZM257.73 79.6529C257.452 79.7981 257.233 79.8418 256.924 79.7493C256.753 79.6979 256.585 79.5994 256.452 79.4671C256.321 79.336 256.226 79.173 256.19 78.9921C256.1 78.5458 255.856 78.1279 255.508 77.8554C255.211 77.6226 254.835 77.4991 254.418 77.5687C253.97 77.6438 253.541 77.9321 253.247 78.2719C253.147 78.3856 253.071 78.5149 252.993 78.6431C252.848 78.8829 252.707 79.1059 252.506 79.2822C252.429 79.3492 252.315 79.3955 252.205 79.3955C252.16 79.3955 252.114 79.3882 252.07 79.3747C251.624 78.9256 251.537 78.5851 251.552 78.2472C251.567 77.8929 251.707 77.5342 251.933 77.1995C252.461 76.4146 253.466 75.7709 254.144 75.625C255.073 75.4254 255.995 75.665 256.735 76.1839C257.496 76.7178 258.059 77.5468 258.235 78.481C258.278 78.7059 258.26 78.9487 258.174 79.1592C258.091 79.3651 257.944 79.5412 257.73 79.6529ZM239.117 69.8332C238.558 70.3764 237.899 70.4607 237.232 70.5354C236.862 70.5775 236.564 70.6112 236.273 70.677C235.473 70.8578 234.682 71.1301 233.959 71.5223C233.204 71.9322 232.382 72.4265 231.79 73.0599C231.649 73.2106 231.518 73.3687 231.385 73.5272C231.264 73.6717 231.147 73.8108 231.024 73.9451C230.883 74.0991 230.749 74.2606 230.616 74.4216C230.533 74.5576 230.516 74.591 230.499 74.6258C230.474 74.6782 230.446 74.7367 230.413 74.7995C230.366 74.8854 230.313 74.9794 230.258 75.0648C230.165 75.2209 230.116 75.2637 230.072 75.283C230.001 75.3148 229.933 75.3305 229.868 75.3221C229.806 75.3141 229.748 75.2843 229.69 75.236C229.404 74.9941 229.32 74.5973 229.328 74.1759C229.341 73.5367 229.577 72.8288 229.795 72.3936C230.3 71.3825 231.001 70.3316 231.844 69.5769C232.804 68.7156 233.858 68.0635 235.066 67.6142C235.817 67.3348 236.686 67.0785 237.503 67.1109C238.091 67.1341 238.655 67.3092 239.118 67.7464C239.404 68.0148 239.54 68.3966 239.54 68.7781C239.54 69.1673 239.397 69.5586 239.117 69.8332ZM258.863 74.8075C258.828 74.8656 258.78 74.9057 258.725 74.9298C258.667 74.9548 258.604 74.9622 258.542 74.9519C258.481 74.9416 258.423 74.9138 258.378 74.8716C258.333 74.8311 258.3 74.7772 258.285 74.7114C257.914 73.0857 257.197 71.876 255.663 71.0961C254.909 70.7124 254.041 70.4686 253.219 70.2742C252.981 70.2177 252.728 70.181 252.474 70.144C251.678 70.0278 250.877 69.8947 250.359 69.2512C250.045 68.8635 249.914 68.3677 249.988 67.9144C250.058 67.4875 250.308 67.0961 250.761 66.8616C251.889 66.2779 253.292 66.8506 254.432 67.3385C254.516 67.3747 254.599 67.4103 254.681 67.4445C255.794 67.9151 256.811 68.5362 257.647 69.4245C258.31 70.1293 258.925 71.1712 259.172 72.2429C259.377 73.1345 259.328 74.0448 258.863 74.8075Z" fill="black"/>
</svg>
